<svg width="110" height="28" viewBox="0 0 110 28" fill="none" xmlns="http://www.w3.org/2000/svg">
<g clip-path="url(#clip0_976_63093)">
<path d="M1.87099 19.103C1.10191 18.8744 0.478324 18.5833 0.000244141 18.23L0.831688 16.4008C1.28898 16.7334 1.80863 17.0036 2.43222 17.1907C3.0558 17.3985 3.67938 17.4817 4.28218 17.4817C4.96812 17.4817 5.48777 17.3778 5.79956 17.1699C6.13214 16.962 6.29843 16.6918 6.29843 16.3592C6.29843 16.1098 6.1945 15.9019 6.00742 15.7357C5.82035 15.5694 5.57092 15.4447 5.25913 15.3407C4.94733 15.2368 4.5524 15.1329 4.03275 15.0081C3.24287 14.8211 2.57772 14.634 2.07885 14.4469C1.57999 14.2598 1.14348 13.9481 0.76933 13.5323C0.39518 13.1166 0.228891 12.5554 0.228891 11.8487C0.228891 11.2459 0.39518 10.6846 0.727757 10.1858C1.06033 9.6869 1.5592 9.29197 2.22436 9.00096C2.88951 8.70996 3.70017 8.56445 4.65633 8.56445C5.32148 8.56445 5.98664 8.6476 6.61022 8.81389C7.25459 8.98018 7.81581 9.20882 8.29389 9.49983L7.5456 11.3498C6.56865 10.8094 5.61249 10.5183 4.63554 10.5183C3.9496 10.5183 3.45074 10.6223 3.13894 10.8509C2.80637 11.0796 2.66086 11.3498 2.66086 11.7239C2.66086 12.0981 2.84794 12.3475 3.22209 12.5346C3.59624 12.7009 4.15746 12.888 4.92655 13.0542C5.71642 13.2413 6.38157 13.4284 6.88044 13.6155C7.37931 13.8025 7.81581 14.1143 8.18996 14.5093C8.56411 14.925 8.7304 15.4654 8.7304 16.1722C8.7304 16.775 8.56411 17.3154 8.23154 17.8143C7.89896 18.3131 7.40009 18.7081 6.73494 18.9991C6.06978 19.2901 5.25913 19.4356 4.30297 19.4356C3.42995 19.4356 2.64008 19.3316 1.87099 19.103Z" fill="#175D33"/>
<path d="M14.0309 10.7678H10.6843V8.7931H19.8094V10.7678H16.4628V19.2693H14.0309V10.7678Z" fill="#175D33"/>
<path d="M30.8676 17.3154V19.2693H22.761V8.77231H30.6805V10.7262H25.1722V12.9919H30.0361V14.8834H25.1722V17.3154H30.8676Z" fill="#175D33"/>
<path d="M42.5702 17.3154V19.2693H34.4636V8.77231H42.3831V10.7262H36.8748V12.9919H41.7387V14.8834H36.8748V17.3154H42.5702Z" fill="#175D33"/>
<path d="M52.8177 19.2485L50.8015 16.3385H48.5566V19.2485H46.1454V8.77231H50.6767C51.6121 8.77231 52.402 8.91782 53.0879 9.22961C53.7739 9.5414 54.2935 9.97791 54.6677 10.5391C55.0418 11.1004 55.2289 11.7863 55.2289 12.5554C55.2289 13.3245 55.0418 14.0104 54.6677 14.5716C54.2935 15.1329 53.7531 15.5694 53.0671 15.8604L55.416 19.2277H52.8177V19.2485ZM52.1941 11.2251C51.82 10.9133 51.2587 10.747 50.5312 10.747H48.5566V14.4053H50.5312C51.2587 14.4053 51.82 14.2391 52.1941 13.9273C52.5683 13.6155 52.7553 13.1582 52.7553 12.5762C52.7761 11.9942 52.5891 11.5369 52.1941 11.2251Z" fill="#175D33"/>
<path d="M58.7833 8.77231H61.2153V17.2738H66.4742V19.2485H58.8041V8.77231H58.7833Z" fill="#175D33"/>
<path d="M69.4674 8.77231H71.8993V19.2485H69.4674V8.77231Z" fill="#175D33"/>
<path d="M86.512 19.3524L78.4262 13.4076L78.4885 19.3109L76.0981 19.3524L75.9942 8.62681L84.1216 14.634V8.73074H86.512V19.3524Z" fill="#175D33"/>
<path d="M105.448 27.8332L97.1546 16.4216L88.9857 27.8332H84.4543L94.8474 13.657L85.0779 0.187653H89.5885L97.3209 10.8093L104.97 0.187653H109.273L99.5243 13.5323L109.98 27.8332H105.448Z" fill="#33A941"/>
<path d="M97.3206 10.7886L104.97 0.16687H109.273L99.5239 13.5115" fill="#175D33"/>
</g>
<defs>
<clipPath id="clip0_976_63093">
<rect width="110" height="27.6663" fill="white" transform="translate(0 0.16687)"/>
</clipPath>
</defs>
</svg>
